<svg width="360" height="55" xmlns="http://www.w3.org/2000/svg" xmlns:xlink="http://www.w3.org/1999/xlink" xml:space="preserve" overflow="hidden"><defs><clipPath id="clip0"><rect x="460" y="79" width="360" height="55"/></clipPath></defs><g clip-path="url(#clip0)" transform="translate(-460 -79)"><path d="M158.8 25.439C162.188 33.9362 168.572 40.2501 178.152 42.8787 177.139 43.848 175.733 45.7431 175.104 47.053 165.812 43.9441 159.621 37.8223 155.699 29.0807 153.28 35.8836 147.91 42.5294 136.339 47.0967 135.762 45.9789 134.4 44.1362 133.387 43.2629 145.194 38.6956 149.936 31.9451 151.778 25.439L134.793 25.439 134.793 20.828 152.652 20.828C152.844 19.1775 152.896 17.5707 152.896 16.1123L152.896 10.8201 136.539 10.8201 136.539 8.27882C136.539 7.10861 137.491 6.15672 138.661 6.15672L174.528 6.15672 174.528 10.8201 157.594 10.8201 157.594 16.1647C157.594 17.6231 157.542 19.2212 157.402 20.828L176.519 20.828 176.519 25.439 158.8 25.439Z" fill="#5C246A" transform="matrix(1.01818 0 0 1 460.063 79)"/><path d="M236.601 39.1847 236.601 43.6996 193.295 43.6996 193.295 39.1847 212.21 39.1847 212.21 12.5667 195.853 12.5667 195.853 10.0254C195.853 8.85519 196.805 7.9033 197.976 7.9033L234.086 7.9033 234.086 12.5667 217.249 12.5667 217.249 39.1847 236.601 39.1847Z" fill="#5C246A" transform="matrix(1.01818 0 0 1 460.063 79)"/><path d="M269.647 33.5519C269.935 34.8619 270.66 36.7569 271.053 37.6302 261.761 44.3808 260.259 45.551 259.438 46.6164 259.054 45.4025 257.936 43.4114 257.115 42.3896 258.128 41.8045 259.586 40.3025 259.586 38.1629L259.586 22.0856 252.277 22.0856 252.277 17.6143 264.18 17.6143 264.18 37.3769 269.647 33.5519ZM264.031 13.833C262.433 11.7895 259.001 8.54081 256.338 6.25278L257.849 4.70705C258.617 3.92109 259.848 3.85122 260.695 4.54112 263.097 6.50603 265.726 8.83773 267.079 10.5232L264.031 13.833ZM296.308 22.9589 284.598 22.9589 284.598 47.2452 279.803 47.2452 279.803 22.9589 267.9 22.9589 267.9 18.2955 279.803 18.2955 279.803 4.97777C279.803 3.80756 280.755 2.85567 281.925 2.85567L284.598 2.85567 284.598 18.3042 296.308 18.3042 296.308 22.9589Z" fill="#5C246A" transform="matrix(1.01818 0 0 1 460.063 79)"/><path d="M323.153 19.5181C323.634 23.5964 324.411 27.238 325.284 30.443 327.555 27.3865 329.493 23.9806 330.996 20.2953L335.205 21.6053C333.03 26.7053 330.218 31.4124 326.786 35.4033 328.428 39.8222 330.367 42.4944 332.157 42.4944 333.266 42.4944 333.799 40.3112 334.096 34.6785 335.065 35.7002 336.707 36.6696 337.825 37.1062 337.1 44.9222 335.554 47.0181 331.825 47.0181 328.437 47.0181 325.677 44.0052 323.407 39.0973 320.603 41.8657 317.503 44.2498 314.211 46.2409 313.626 45.3152 312.036 43.5686 311.111 42.6953 315.032 40.6081 318.612 37.8835 321.756 34.5824 320.403 30.4517 319.381 25.4478 318.656 20.0595L311.495 20.8892 311.015 16.6188 318.176 15.7891C317.809 12.2523 317.582 8.58447 317.486 4.89044 317.46 3.70276 318.42 2.72467 319.608 2.72467L322.036 2.72467C321.983 7.09987 322.228 11.2742 322.621 15.2564L337.379 13.6059 337.816 17.885 323.153 19.5181ZM330.751 12.7151C329.397 10.8201 326.446 7.85964 323.974 5.86853L327.022 3.44077C329.493 5.33582 332.489 8.05176 333.939 9.94681L330.751 12.7151ZM344.208 34.3292 339.903 34.3292 339.903 9.97301C339.903 8.80279 340.855 7.8509 342.025 7.8509L344.217 7.8509 344.217 34.3292 344.208 34.3292ZM353.448 3.14386 353.448 41.7085C353.448 44.3808 352.863 45.6383 351.273 46.3719 349.632 47.0967 347.064 47.2452 342.951 47.2452 342.759 46.0313 342.034 44.0402 341.449 42.7739 344.305 42.87 347.108 42.87 347.885 42.8263 348.758 42.8263 349.099 42.5818 349.099 41.7085L349.099 5.26596C349.099 4.09574 350.051 3.14386 351.221 3.14386L353.448 3.14386Z" fill="#5C246A" transform="matrix(1.01818 0 0 1 460.063 79)"/><path d="M71.4441 23.6226 71.4441 37.2547 79.2514 37.2547C82.3777 37.2547 84.919 34.7221 84.919 31.587L84.919 17.9636 77.1118 17.9636C73.9767 17.9636 71.4441 20.4962 71.4441 23.6226Z" fill="#5C246A" transform="matrix(1.01818 0 0 1 460.063 79)"/><path d="M24.6007 21.614 37.8922 21.614C55.1834 21.614 60.3184 7.85964 61.8466 0L47.8914 0C44.4157 8.02556 35.1151 8.13909 35.1151 8.13909L27.7183 8.13909C27.7183 8.13909 19.5967 8.32248 14.6102 0L0.646237 0C2.1745 7.85964 7.3182 21.614 24.6007 21.614Z" fill="#5C246A" transform="matrix(1.01818 0 0 1 460.063 79)"/><path d="M86.98 13.4662C86.98 13.4662 98.1931 12.6278 101.154 25.1508L114.707 25.1508C114.026 18.7409 110.271 0 89.9667 0L66.3703 0C65.6192 3.85122 64.4228 9.10845 60.9384 13.4662L86.98 13.4662Z" fill="#5C246A" transform="matrix(1.01818 0 0 1 460.063 79)"/><path d="M86.36 41.5251C86.36 41.5251 70.728 41.56 67.4619 41.5338L67.4619 41.5338C60.6764 41.5338 60.0127 41.298 57.812 38.5122 56.4671 36.4251 55.7423 35.1151 52.9128 32.6699 50.8519 30.8884 48.1883 29.7444 48.1883 29.7444 45.3414 28.4694 41.9967 27.6747 37.9446 27.6747L24.9063 27.6747C0.192124 27.5349 0 54.9651 0 54.9651L13.309 54.9651C14.2696 40.8526 27.893 41.1408 27.893 41.1408L34.9492 41.1408C34.9492 41.1408 41.1758 41.1234 45.9527 46.6164 46.66 47.4286 47.6469 48.8869 47.6469 48.8869 51.7426 55 57.3579 54.9651 65.3223 54.9651 72.8938 54.9651 89.9492 55 89.9492 55 110.428 55 114.07 35.9447 114.716 29.6832L101.18 29.6832C98.2629 42.3722 86.36 41.5251 86.36 41.5251Z" fill="#5C246A" transform="matrix(1.01818 0 0 1 460.063 79)"/></g></svg>